<svg viewBox="0 0 96 30"><path d="M82.813 30h-4.912V6.997h4.912v2.178C83.275 7.756 85.22 6.7 87.758 6.7 92.473 6.7 96 10.495 96 15.314c0 4.785-3.527 8.613-8.242 8.613-2.538 0-4.483-1.023-4.945-2.475V30zM44.209 16.601c.099 1.98 1.813 3.267 4.417 3.267 1.715 0 2.901-.528 4.055-1.617l2.868 2.739c-2.208 2.277-4.615 3.036-7.153 3.036-5.407 0-9.099-3.399-9.099-8.613v-.132c0-5.314 3.824-8.713 9-8.713 5.142 0 8.538 3.762 8.538 8.448 0 0 0 .826-.066 1.585h-12.56zm14.406-9.604h4.912v9.505c0 1.914.989 3.135 2.869 3.135 1.78 0 3.065-1.353 3.065-3.3v-9.34h4.913v10.792c0 1.353.362 1.848 1.219 1.848.231 0 .594-.033.825-.066v4.092c-.495.165-1.418.264-2.209.264-.89 0-1.879-.132-2.703-.594-.528-.33-1.187-.858-1.484-1.782-.725 1.419-2.308 2.442-4.879 2.442-4.187 0-6.528-2.607-6.528-6.897V6.997zm-34.747 0v10.792c0 1.188.264 1.749 1.121 1.749.198 0 .527-.033.593-.066v4.191c-.165.066-.923.264-2.275.264-2.637 0-4.351-1.254-4.351-4.686v-7.754h-1.568v-4.49h6.48zM4.912 23.63H0V.627h4.912V9.01c.659-1.419 2.44-2.376 4.649-2.376 3.956 0 6.164 2.607 6.164 6.897v4.192c0 1.221.198 1.749 1.088 1.749.198 0 .429-.033.495-.033v4.158c-.099.033-.824.231-2.11.231-2.604 0-4.385-1.254-4.385-4.752v-4.951c0-1.914-.989-3.135-2.835-3.135-1.78 0-3.066 1.353-3.066 3.3v9.34zm27.626 0h-4.912V6.997h4.912v2.277c.758-1.683 2.539-2.64 4.813-2.64.462 0 1.022.066 1.286.099v4.62a7.938 7.938 0 0 0-1.648-.165c-2.802 0-4.451 1.617-4.451 4.324v8.118zm54.33-4.158c2.374 0 4.22-1.815 4.22-4.158 0-2.344-1.846-4.159-4.22-4.159-2.407 0-4.352 1.815-4.352 4.159 0 2.343 1.945 4.158 4.352 4.158zM51.89 13.399c0-1.518-1.615-2.772-3.593-2.772-2.143 0-3.89 1.221-4.022 2.772h7.615zM21.395 5.578c1.55 0 2.803-1.222 2.803-2.773A2.78 2.78 0 0 0 21.395 0a2.801 2.801 0 0 0-2.802 2.805c0 1.551 1.286 2.773 2.802 2.773z"/></svg>